<?xml version="1.0" encoding="UTF-8" standalone="no"?>
<svg width="202px" height="170px" viewBox="0 0 202 170" version="1.1" xmlns="http://www.w3.org/2000/svg" xmlns:xlink="http://www.w3.org/1999/xlink" xmlns:sketch="http://www.bohemiancoding.com/sketch/ns">
    <!-- Generator: Sketch 3.2.2 (9983) - http://www.bohemiancoding.com/sketch -->
    <title>grand_tour_tdf</title>
    <desc>Created with Sketch.</desc>
    <defs></defs>
    <g id="Assets" stroke="none" stroke-width="1" fill="none" fill-rule="evenodd" sketch:type="MSPage">
        <g id="Logos-/-Icons" sketch:type="MSArtboardGroup" transform="translate(-880.000000, -1189.000000)">
            <g id="grand_tour_tdf" sketch:type="MSLayerGroup" transform="translate(880.000000, 1189.000000)">
                <rect id="Rectangle-49" fill="#FFC425" sketch:type="MSShapeGroup" x="0.5" y="0" width="201" height="170"></rect>
                <g id="Imported-Layers-32" transform="translate(44.500000, 37.000000)" sketch:type="MSShapeGroup">
                    <path d="M86.2902242,31.619964 C82.7762667,35.7651079 81.5627152,40.0858993 83.3070242,46.5910072 C86.2443394,57.6356115 102.727273,57.8338129 109.377152,50.5584532 C116.268782,43.0411511 109.9942,29.4602518 102.549897,27.4092086 C96.0089091,25.621295 89.1398788,28.2471223 86.2902242,31.619964" id="Fill-1" fill="#FFFFFF"></path>
                    <path d="M50.6315333,33.8685252 C48.025,34.5519784 45.3739515,34.9928058 43.1214848,36.5592806 C36.5599515,41.1657554 36.0942545,52.673741 43.672103,56.5120144 C47.8044788,58.6054317 52.9086545,58.0347482 56.2219515,54.8368705 C59.9091758,51.2876978 60.242697,44.8905755 57.1499212,40.8561511 C56.2219515,39.6232014 54.9166303,38.5201079 53.4380424,38.1011511 C50.8732848,37.4176978 47.6058727,38.123705 45.5287273,39.7113669 C44.9774242,40.1091367 44.6658182,40.637446 44.2898364,41.1657554 L43.8056485,41.0782734 C44.2686061,37.1976259 48.4893273,35.4356835 52.0238303,35.2142446 C56.8602303,34.9039568 60.7734545,38.4982374 62.4965333,42.7971583 C64.2839879,47.2525899 63.9093758,52.6313669 61.2131273,56.6644245 C59.6023636,59.0476259 57.259497,61.0542446 54.6070788,62.1997122 C46.7648788,65.5711871 36.9119636,60.6346043 34.6149818,52.4775899 C32.756303,45.8631295 35.5210364,37.6377698 41.8599939,34.441259 C43.4050121,33.6921942 45.1534303,33.1638849 46.8751394,33.1406475 C48.1797758,33.1194604 49.3940121,33.5370504 50.6315333,33.8685252" id="Fill-2" fill="#231F1F"></path>
                    <path d="M61.5671939,22.822554 C62.6725394,26.9232734 63.401903,31.2673022 65.4557636,35.0146763 L65.6324545,34.5519784 L66.8706606,24.1894604 L67.2240424,24.0794245 C68.1937879,27.0558633 69.1676424,29.9871942 69.4100788,33.0969065 C69.5648545,35.1472662 69.1238121,38.079964 67.3582727,39.4461871 C65.6557394,40.7454317 63.3553333,39.6669424 62.384903,37.9904317 C61.4363879,36.4041367 60.7734545,34.331223 60.6618242,32.4790647 C60.441303,29.2155755 61.0158909,26.0416187 61.5671939,22.822554" id="Fill-3" fill="#231F1F"></path>
                    <path d="M47.9352848,48.3761871 C48.0037697,48.5955755 48.5550727,48.9284173 48.7543636,49.0370863 C49.7480788,49.5448921 50.610303,48.9072302 50.7637091,48.0693165 C50.8952,47.3400719 50.8321939,46.6333813 50.1884364,46.3025899 C49.1502061,45.7742806 47.3401515,46.5910072 47.9352848,48.3761871" id="Fill-4" fill="#231F1F"></path>
                    <path d="M59.1599515,64.8241727 L61.2809273,70.1605755 C61.6349939,68.5708633 62.0287818,66.9838849 62.6047394,65.4632014 C63.0019515,64.4052158 63.8203455,63.3021223 65.0571818,63.2583813 C65.6557394,63.2365108 66.4282485,63.4347122 66.8460061,63.9192806 C67.4233333,64.6034173 67.8410909,65.4420144 68.1294121,66.3017986 C69.101897,69.1661511 69.5004788,72.2095683 70.1613576,75.1641367 L71.244103,79.7289209 L70.9126364,80.0357914 C69.8298909,78.6921223 68.7478303,77.4120144 68.017097,75.8701439 L65.8748909,70.577482 C65.3242727,73.7514388 64.4182182,76.5973381 63.334103,79.638705 C63.2690424,79.8157194 63.203297,80.0590288 63.0916667,80.2121223 L62.9814061,80.4110072 L62.7814303,80.6755036 L59.4907333,78.9778058 L59.5359333,78.8240288 L59.5359333,77.7004317 L59.1599515,64.8241727" id="Fill-5" fill="#231F1F"></path>
                    <path d="M83.3953697,58.8931655 C82.7331212,59.7953237 81.9599273,60.5683094 81.3853394,61.5388129 C80.6121455,62.8401079 79.9266121,64.2316187 79.3746242,65.6607194 C78.8445515,67.0488129 78.2473636,70.512554 78.9315273,71.7461871 C79.2636788,72.3633453 79.9060667,72.8055396 80.5450303,73.0249281 C81.5154606,73.4001439 82.5571152,73.5552878 83.5953455,73.7514388 L86.7093515,74.2838489 L86.7764667,74.7021223 C84.058303,75.7143165 81.4524545,76.9288129 78.5343152,76.0690288 C77.1214727,75.6261511 75.8853212,74.7677338 75.0436424,73.5320504 C73.9163818,71.8343525 73.6527152,69.5413669 74.2930485,67.6242806 C75.4408545,64.117482 77.7392061,60.8984173 80.9189576,59.002518 C81.3168545,58.782446 81.7832364,58.6054317 82.2461939,58.5630576 C82.6447758,58.5179496 83.0173333,58.7168345 83.3953697,58.8931655" id="Fill-6" fill="#231F1F"></path>
                    <path d="M92.1648545,62.1129137 L92.5401515,62.9269065 C92.6079515,62.8401079 92.7175273,62.795 92.7627273,62.6863309 C93.7324727,61.5388129 94.3981455,60.7002158 95.0843636,59.2239568 C95.7897576,57.7251439 96.0089091,56.6644245 96.1417697,55.5852518 L95.9671333,55.6734173 L95.3014606,56.1381655 C93.6900121,57.4606475 92.8291576,59.5096403 92.3189455,61.4513309 C92.2758,61.670036 92.2107394,61.8928417 92.1648545,62.1129137 M91.8772182,63.8317986 C91.7895576,64.5357554 91.7464121,65.2431295 91.7464121,65.9477698 C91.7464121,67.4684532 91.923103,69.144964 92.8503879,70.4011511 C93.1619939,70.8214748 93.600297,71.1741367 94.1098242,71.2609353 C95.1706545,71.4584532 96.3862606,71.1515827 97.3580606,70.6895683 C99.4564364,69.6520863 101.378121,68.3282374 103.28063,66.9838849 L107.0336,64.3156835 L107.319867,64.6034173 C105.0674,67.4253957 102.793703,70.2036331 100.098139,72.6278417 C99.3454909,73.3338489 98.3750606,73.7965468 97.4244909,74.1936331 C95.9883636,74.7889209 94.3981455,75.1641367 92.8503879,74.7889209 C91.4580909,74.457446 90.0890788,73.5771583 89.2720545,72.3872662 C88.5646061,71.3285971 87.9687879,70.2036331 87.6359515,68.97 C87.1503939,67.0488129 86.9743879,65.0428777 87.2613394,63.1046043 C87.5263758,61.0973022 88.2790242,59.1795324 89.2501394,57.3936691 C90.7081818,54.7254676 93.3606,52.1016906 96.5629515,51.8597482 C97.8888182,51.7503957 99.1256545,52.5418345 99.3920606,53.8663669 C99.6769576,55.2339568 99.2133152,56.8626259 98.6161273,58.0108273 C97.776503,59.6634173 96.6923879,61.164964 95.4582909,62.5305036 C94.9713636,63.0834173 93.3606,64.4926978 92.2538848,64.117482 C92.0997939,64.0511871 91.9888485,63.963705 91.8772182,63.8317986" id="Fill-7" fill="#231F1F"></path>
                    <path d="M26.0427333,89.9144245 C25.3359697,88.1736691 24.5627758,86.4520504 24.3415697,84.578705 C23.8553273,80.3023381 23.5019455,76.4654317 24.2292545,72.3421583 C24.5203152,70.6895683 25.4017152,68.8148561 27.1035636,68.2639928 C28.7814424,67.7117626 30.5045212,68.5708633 31.6331515,69.8065468 C33.4432061,71.7461871 34.704697,74.413705 34.3711758,77.1044604 C34.0390242,79.7289209 33.2000848,81.1416187 31.7420424,83.1906115 L32.1604848,83.651259 L36.1839697,86.5203957 L39.1438848,88.8557554 L38.9658242,89.2070504 C35.4313212,88.1490647 31.9406485,87.2236691 29.2005697,85.0632734 C28.891703,84.8418345 28.6259818,84.4010072 28.4938061,84.0715827 C28.2075394,83.41 28.1849394,82.7039928 28.4725758,82.0424101 C28.7814424,81.2707914 29.3327455,80.6092086 29.6203818,79.8157194 C30.7914727,76.6855036 30.0203333,74.8326619 28.2958848,73.134964 C28.0760485,73.6646403 27.9007273,74.2148201 27.7877273,74.7889209 L26.6385515,84.4919065 L26.0427333,89.9144245" id="Fill-8" fill="#231F1F"></path>
                    <path d="M50.8952,69.321295 L50.3651273,68.2195683 C47.9804848,72.4528777 46.4121818,78.316223 45.9266242,80.9427338 C47.2963212,80.3898201 48.4242667,79.1097122 48.9968,77.5227338 C49.2618364,76.7511151 49.3940121,75.9357554 49.4611273,75.1197122 C49.5508424,74.2838489 49.4179818,73.4657554 49.5056424,72.6278417 C49.5720727,71.8801439 50.4336121,71.2609353 51.1609212,71.4167626 C51.6252485,71.5035612 52.0882061,71.7680576 52.310097,72.2095683 L55.7569394,79.5963309 L55.4706727,79.8615108 L52.7086788,76.7955396 L52.7086788,77.2144964 C52.5997879,79.1336331 51.7368788,81.1170144 50.5205879,82.5720863 C48.6009576,84.9313669 43.2968061,88.657554 40.9984545,86.054964 C39.9383091,84.8657554 40.4916667,83.0341007 40.9772242,81.7567266 C42.1907758,78.5595324 43.626903,75.4067626 45.2862909,72.4084532 C46.4573818,70.3143525 47.3182364,69.2119424 48.7981939,67.3146763 C49.1960909,66.807554 50.0562606,66.3017986 50.7191939,66.5423741 C51.1164061,66.7193885 51.3602121,67.1171583 51.4033576,67.5579856 C51.4266424,67.8648561 51.4485576,68.2195683 51.3389818,68.5284892 L50.8952,69.321295" id="Fill-9" fill="#231F1F"></path>
                    <path d="M95.7014121,17.0022662 C95.832903,19.6253597 98.5291515,20.352554 99.7673576,19.3396763 C101.13637,18.2598201 101.11377,16.7152158 99.8776182,15.3913669 C98.7928182,14.2014748 95.6349818,15.4152878 95.7014121,17.0022662" id="Fill-10" fill="#231F1F"></path>
                    <path d="M72.238503,54.1759712 C72.1063273,45.0040288 72.5021697,35.786295 72.1939879,26.6129856 L71.9940121,20.4639568 C71.9940121,18.4354676 73.4999939,16.5833094 75.3326485,15.7905036 C77.0981879,14.994964 78.9767273,14.4434173 80.8984121,14.2233453 C82.9967879,13.9827698 85.1184485,14.1133094 87.2181939,14.3791727 C88.2550545,14.4898921 89.2720545,14.82 90.2418,15.2375899 C91.7690121,15.8998561 93.7564424,16.9810791 93.8673879,18.853741 C93.9776485,20.3101799 92.8503879,21.411223 91.8559879,22.2710072 L90.5746364,23.2647482 L87.8818121,25.2248921 L86.3778848,26.6375899 L86.8182424,27.0107554 L88.0783636,27.9163309 L94.5734667,33.2718705 L94.2865152,33.6258993 L86.752497,30.2305036 C85.3396545,29.5456835 83.7049212,28.8635971 82.9741879,27.3859712 C82.6899758,26.79 82.7331212,25.7976259 83.1508788,25.2693165 C84.6328909,23.4185252 86.3326848,21.7864388 88.013303,20.1119784 C88.2112242,19.9561511 88.3872303,19.7811871 88.5646061,19.6041727 C88.2790242,19.5146403 87.9687879,19.4285252 87.6147212,19.3608633 C86.4669152,19.1838489 85.2951394,19.1182374 84.1445939,19.1838489 C82.5571152,19.3157554 81.0079879,19.6479137 79.5074848,20.1119784 L77.8501515,20.7284532 L77.3632242,20.9936331 L77.3200788,21.0134532 C77.2988485,21.6545324 77.2762485,22.2935612 77.2536485,22.9332734 C77.1851636,24.2120144 77.1214727,25.4907554 77.0091576,26.7469424 C76.2811636,35.4992446 75.4867394,42.2914029 73.5178,51.7271583 C73.232903,52.2800719 72.4823091,53.690036 72.238503,54.1759712" id="Fill-11" fill="#231F1F"></path>
                    <path d="M54.0530364,12.1073741 C54.1215212,12.1729856 54.1879515,12.1299281 54.2324667,12.0861871 C55.0714061,11.6891007 55.6918788,10.7842086 56.0658061,9.99140288 C56.4424727,9.19859712 56.6212182,8.3805036 56.6212182,7.49953237 L56.5979333,7.43392086 L56.2219515,7.58838129 L55.7795394,7.8747482 C54.7419939,8.71061151 54.2098667,9.96884892 53.8126545,11.2264029 C53.7921091,11.2701439 53.7688242,11.3343885 53.7475939,11.4013669 C53.8345697,11.6439928 53.9242848,11.9084892 54.0530364,12.1073741 M53.4798182,12.239964 C53.1510909,13.5392086 53.0168606,14.907482 53.6154182,16.1664029 C53.7921091,16.4944604 54.0790606,16.8273022 54.452303,16.9352878 C55.2474121,17.2004676 56.2671515,16.8273022 56.9725455,16.4281655 C58.2532121,15.7235252 59.3585576,14.8623741 60.4625333,13.9157914 L60.6837394,13.9827698 C59.7359091,16.4507194 57.5909636,18.5892446 54.8529394,18.9405396 C53.3051818,19.1633453 51.9128848,17.9727698 51.2725515,16.6256835 C50.389097,14.7755755 50.4336121,12.1941727 51.0951758,10.2969065 C51.8923394,7.98410072 53.7030788,5.80183453 56.1336061,5.22841727 C56.7294242,5.07532374 57.4587879,5.18604317 57.9217455,5.62482014 C58.6743939,6.30964029 58.7168545,7.39086331 58.497703,8.31489209 C58.1655515,9.76996403 57.3690727,11.0938129 56.2219515,12.0403957 C55.6918788,12.4825899 55.0494909,12.8796763 54.3228667,12.9241007 C54.0098909,12.9446043 53.7030788,12.7682734 53.5702182,12.4825899 C53.5250182,12.3944245 53.5065273,12.306259 53.4798182,12.239964" id="Fill-12" fill="#231F1F"></path>
                    <path d="M43.0550545,0.665683453 C43.7385333,1.89931655 44.4233818,3.24503597 44.7562182,5.00834532 C45.2862909,7.8747482 45.5492727,10.8060791 45.5711879,13.7169065 L45.5944727,17.9488489 L45.6821333,18.787446 L45.8375939,19.4927698 C45.9033394,19.6923381 45.9697697,19.8693525 46.0122303,20.0668705 C46.0368848,20.0668705 46.0368848,20.088741 46.0368848,20.088741 C46.6121576,19.978705 47.1415455,19.7579496 47.6935333,19.5809353 C48.7105333,19.2289568 49.7480788,18.897482 50.7876788,18.5441367 L50.8952,18.7232014 C50.1466606,19.5597482 49.4179818,20.3983453 48.5550727,21.1023022 C47.7825636,21.7413309 46.7203636,22.3824101 45.660903,22.4897122 C45.3082061,22.5129496 44.8890788,22.5129496 44.6000727,22.2498201 C43.7823636,21.5444964 43.2509212,20.5302518 42.9208242,19.4927698 C42.5660727,18.4122302 42.3037758,17.2879496 42.2126909,16.1664029 C42.0154545,13.782518 42.3263758,11.3794964 42.4585515,8.97852518 C42.5900424,6.90561151 42.6126424,4.83064748 42.7653636,2.75978417 C42.8112485,2.05446043 42.9441091,1.36964029 43.0550545,0.665683453" id="Fill-13" fill="#231F1F"></path>
                    <path d="M13.5620545,49.2592086 C13.5832848,49.2803957 13.6497152,49.3022662 13.6914909,49.3022662 C14.6420606,49.2352878 15.2399333,48.0214748 14.884497,47.2067986 L14.8413515,47.1651079 L14.6852061,47.2067986 L14.5318,47.317518 L14.3770242,47.4507914 C13.9572121,47.9339928 13.6695758,48.5955755 13.5620545,49.2592086 M14.8413515,47.1411871 L14.8187515,47.1193165 L14.7975212,47.1193165 L14.8187515,47.1411871 L14.8413515,47.1411871 M13.4928848,49.6105036 L13.4928848,49.7410432 C13.4702848,50.1846043 13.5161697,50.978777 14.0476121,51.132554 C14.4448242,51.2644604 14.9310667,51.066259 15.2837636,50.8906115 C15.7248061,50.6691727 16.1021576,50.3616187 16.498,50.0738849 L16.6075758,50.1401799 C16.4534848,50.4497842 16.3206242,50.7771583 16.0788727,51.022518 C15.5488,51.5952518 14.7091758,52.1919065 13.8695515,52.0360791 C13.0730727,51.9253597 12.5875152,51.2425899 12.3882242,50.5153957 C12.014297,49.0370863 12.4560242,47.1651079 13.8243515,46.3265108 C14.4448242,45.9499281 15.1940485,45.8180216 15.6789212,46.4563669 C16.0788727,47.0085971 16.0117576,47.8020863 15.7693212,48.3761871 C15.4604545,49.1245683 14.6420606,49.8544964 13.7805212,49.721223 C13.6695758,49.6986691 13.5832848,49.6767986 13.4928848,49.6105036" id="Fill-14" fill="#231F1F"></path>
                    <path d="M8.80989091,48.7958273 C8.5667697,48.6639209 8.28050303,48.5292806 8.01478182,48.5955755 C7.37376364,48.7732734 7.02175152,49.6767986 6.84437576,50.2269784 C6.62248485,50.9117986 6.51222424,51.6608633 6.57865455,52.3880576 L6.62248485,52.7181655 L6.73274545,52.9833453 L6.75671515,53.0496403 L6.82040606,53.0496403 C7.26418788,52.871259 7.6388,52.2561511 7.83877576,51.9034892 C8.28050303,51.0443885 8.588,50.1401799 8.76537576,49.1908633 L8.80989091,48.7958273 M8.85577576,48.4664029 L8.96398182,47.3851799 L8.96398182,46.6121942 C8.87563636,45.8392086 8.85577576,45.0915108 8.87563636,44.3192086 C8.87563636,44.0096043 9.14204242,43.6794964 9.47350909,43.6583094 C9.78306061,43.6583094 10.048097,43.9460432 10.1131576,44.2529137 C10.3562788,45.2657914 10.4459939,46.3476978 10.4220242,47.3851799 C10.4007939,48.0002878 10.3562788,48.5955755 10.246703,49.1696763 L10.3788788,50.1613669 L10.9541515,52.4564029 L10.8418364,52.5206475 C10.5329697,51.8597482 10.224103,51.197482 9.95838182,50.5365827 C9.84949091,50.8680576 9.73786061,51.197482 9.6036303,51.5289568 C9.31804848,52.2998921 8.76537576,52.9621583 8.21338788,53.557446 C7.70454545,54.1308633 6.73274545,54.5279496 6.04995152,53.9982734 C5.7404,53.754964 5.6061697,53.3134532 5.53973939,52.9409712 C5.36441818,51.9465468 5.6513697,50.8222662 6.07255152,49.9173741 C6.42524848,49.1484892 7.26418788,47.8020863 8.34693333,48.1356115 C8.5667697,48.1991727 8.72017576,48.3338129 8.85577576,48.4664029" id="Fill-15" fill="#231F1F"></path>
                    <path d="M9.53925455,32.5679137 C13.8024364,31.3759712 18.0224727,30.0323022 22.3527697,28.9736331 C24.8504121,28.376295 27.4329758,28.1575899 29.9319879,27.6074101 C32.602897,27.0107554 35.2108,26.2186331 37.8399333,25.5126259 C37.9289636,25.6001079 37.9947091,25.6670863 38.0590848,25.7552518 C36.0086485,27.6504676 34.0842242,29.6358993 31.4544061,30.9358273 C30.1066242,31.5974101 28.693097,32.2145683 27.2357394,32.6560791 L27.4117455,33.8910791 L29.0923636,43.6583094 C29.4231455,48.8388849 29.8867879,54.1308633 28.891703,59.2697482 L27.6103515,63.1941367 L27.1699939,63.1257914 L25.4017152,54.6810432 L23.6786364,38.8283453 C23.6786364,36.998741 23.6786364,35.1042086 23.9210727,33.2718705 C23.6998667,33.2957914 23.4793455,33.2957914 23.2588242,33.2957914 C18.6634909,33.2718705 14.1126727,32.8535971 9.53925455,32.5679137" id="Fill-16" fill="#231F1F"></path>
                    <path d="M23.3458,54.1089928 C21.4912303,54.9243525 18.7532061,56.3780576 16.8294667,58.0983094 C14.5763152,60.1288489 13.3387939,63.0164388 12.8963818,66.0161151 C12.8094061,66.587482 12.7429758,67.1588489 12.6977758,67.735 C15.8138364,67.0488129 19.083303,67.1588489 22.3315394,67.0289928 L22.3733152,67.6242806 C19.1497333,69.5413669 16.2096788,72.0988489 12.6772303,73.4445683 C12.7217455,73.9079496 12.7429758,74.3706475 12.7854364,74.8326619 C13.184703,79.3981295 14.2229333,83.8521942 15.2399333,88.3055755 L16.9198667,94.6329856 L16.4774545,94.8769784 C12.963497,90.5083453 11.0849576,86.8040288 9.25093333,81.4717266 C8.5667697,79.507482 8.03669697,77.5015468 7.684,75.452554 C7.6388,75.1422662 7.59428485,74.8326619 7.55045455,74.5230576 C5.14252727,74.7219424 2.6681697,74.6139568 0.215727273,74.6139568 C2.64625455,73.1151439 4.92337576,71.2821223 7.39499394,69.8509712 C7.48607879,68.1956475 7.74906061,66.5423741 8.19352727,64.9348921 C9.20778788,61.2292086 11.5266848,57.526259 14.9310667,55.5415108 C18.2457333,53.6230576 21.3809697,53.557446 23.3458,54.1089928" id="Fill-17" fill="#231F1F"></path>
                </g>
            </g>
        </g>
    </g>
</svg>